<svg enable-background="new 0 0 394.8 286" viewBox="0 0 394.8 286" xmlns="http://www.w3.org/2000/svg" xmlns:xlink="http://www.w3.org/1999/xlink"><clipPath id="a"><path d="m116.9 230.4-17.8-9.7c2.3 1.2 5 1.6 8.1 1.2 11.3-1.6 17-13.8 17.1-36.5l17.8 9.7c0 22.8-5.7 34.9-17.1 36.5-3.1.4-5.9 0-8.1-1.2z"/></clipPath><clipPath id="b"><path d="m92.7 262.2-17.8-9.7c-3.3-1.8-6.4-4.1-9.1-6.9-9.8-10-14.7-25.1-14.7-45.4l17.8 9.7c0 20.3 4.9 35.4 14.7 45.4 2.8 2.8 5.8 5.1 9.1 6.9z"/></clipPath><clipPath id="c"><path d="m263.5 207.1-17.8-9.7c4.9 2.6 11 3.4 18.5 2.4 7.7-1.1 14-3.6 18.8-7.7l17.8 9.7c-4.8 4-11 6.6-18.8 7.7-7.5 1.1-13.6.3-18.5-2.4z"/></clipPath><clipPath id="d"><path d="m276.6 57.5 17.8 9.7c1.3.7 2.5 1.6 3.6 2.7 4.1 4.3 6.6 13 7.7 26.1l-17.8-9.7c-1-13.1-3.6-21.8-7.7-26.1-1.1-1.1-2.3-2-3.6-2.7z"/></clipPath><clipPath id="e"><path d="m240.2 239.4-17.8-9.7c-4.5-2.5-8.6-5.7-12.3-9.6-12.3-13.1-18.6-33.9-18.9-62.3l17.8 9.7c.3 28.4 6.6 49.1 18.9 62.3 3.6 3.9 7.7 7.1 12.3 9.6z"/></clipPath><clipPath id="f"><path d="m299.9 25.6 17.8 9.7c-10.1-5.5-23.4-7.1-40-4.8l-17.8-9.7c16.5-2.3 29.8-.7 40 4.8z"/></clipPath><clipPath id="g"><path d="m209.1 130-17.8-9.7c.1-28.8 5.9-51.8 17.6-69s28.7-27.3 51-30.5l17.8 9.7c-22.3 3.1-39.3 13.3-51 30.5s-17.6 40.2-17.6 69z"/></clipPath><g enable-background="new"><g clip-path="url(#a)" enable-background="new"><path d="m116.9 230.4-17.8-9.7c.1.1.3.1.4.2l17.8 9.7c-.2-.1-.3-.1-.4-.2" fill="#2a1b1d"/><path d="m117.3 230.6-17.8-9.7c.7.3 1.4.6 2.1.8l17.8 9.7c-.8-.2-1.5-.5-2.1-.8" fill="#2c1c1d"/><path d="m119.4 231.4-17.8-9.7c1.7.4 3.6.5 5.6.2 1.6-.2 3.1-.7 4.4-1.3l17.8 9.7c-1.4.6-2.9 1.1-4.4 1.3-2.1.3-3.9.2-5.6-.2" fill="#2d1d1e"/><path d="m129.5 230.3-17.8-9.7c.7-.3 1.4-.7 2.1-1.2l17.8 9.7c-.7.4-1.4.8-2.1 1.2" fill="#2c1c1d"/><path d="m131.5 229.1-17.8-9.7c.5-.4 1-.8 1.5-1.2l17.8 9.7c-.4.4-.9.8-1.5 1.2" fill="#2a1b1d"/><path d="m133.1 227.9-17.8-9.7c.5-.4.9-.9 1.3-1.4l17.8 9.7c-.4.5-.9.9-1.3 1.4" fill="#291a1c"/><path d="m134.4 226.5-17.8-9.7c.5-.5.9-1.1 1.3-1.7l17.8 9.7c-.4.6-.8 1.2-1.3 1.7" fill="#271a1b"/><path d="m135.7 224.8-17.8-9.7c.5-.7 1-1.5 1.4-2.3l17.8 9.7c-.4.9-.9 1.6-1.4 2.3" fill="#26191a"/><path d="m137.1 222.5-17.8-9.7c.6-1.2 1.2-2.4 1.7-3.8l17.8 9.7c-.5 1.4-1 2.7-1.7 3.8" fill="#251819"/><path d="m138.8 218.7-17.8-9.7c2.2-5.9 3.2-13.8 3.3-23.7l17.8 9.7c0 9.9-1.1 17.8-3.3 23.7" fill="#231718"/></g><g clip-path="url(#b)" enable-background="new"><path d="m92.7 262.2-17.8-9.7c-3.3-1.8-6.4-4.1-9.1-6.9-9.8-10-14.7-25.1-14.7-45.4l17.8 9.7c0 20.3 4.9 35.4 14.7 45.4 2.8 2.8 5.8 5.1 9.1 6.9" fill="#231718"/></g><path d="m69 209.9-17.8-9.7 39.2-5.5 17.8 9.7z" fill="#301f21"/><path d="m181.4 46.9-.3 144.6c0 20.3-5.3 37.3-15.8 51s-24 21.7-40.4 24c-17.7 2.5-31.5-1.3-41.3-11.3s-14.7-25.1-14.7-45.4l39.2-5.5c0 19.7 5.6 28.8 16.8 27.2 11.3-1.6 17-13.8 17.1-36.5l.3-142.6z" fill="#3b2628"/><path d="m142.1 195-17.8-9.7.2-142.6 17.9 9.7z" fill="#231617"/><path d="m142.4 52.4-17.9-9.7 39.1-5.5 17.8 9.7z" fill="#301f21"/></g><g enable-background="new"><path d="m300.8 201.8-17.8-9.6 3.4-3.1 17.8 9.7z" fill="#2d1d1f"/><path d="m304.2 198.8-17.8-9.7.1-38.3 17.8 9.7z" fill="#231617"/><g clip-path="url(#c)" enable-background="new"><path d="m263.5 207.1-17.8-9.7c.2.1.5.3.8.4l17.8 9.7c-.3-.1-.5-.2-.8-.4" fill="#2a1b1d"/><path d="m264.3 207.5-17.8-9.7c1.3.7 2.8 1.2 4.3 1.6l17.8 9.7c-1.6-.4-3-.9-4.3-1.6" fill="#2c1c1d"/><path d="m268.5 209.1-17.8-9.7c3.9 1 8.4 1.1 13.5.4 4.6-.6 8.6-1.8 12.2-3.5l17.8 9.7c-3.5 1.7-7.6 2.8-12.2 3.5-5.1.7-9.6.6-13.5-.4" fill="#2d1d1e"/><path d="m294.2 206-17.8-9.7c1.6-.7 3.1-1.6 4.5-2.6l17.8 9.7c-1.5 1-3 1.9-4.5 2.6" fill="#2c1c1d"/><path d="m298.6 203.5-17.8-9.7c.7-.5 1.5-1.1 2.1-1.6l17.8 9.7c-.6.5-1.3 1.1-2.1 1.6" fill="#2a1b1d"/></g><path d="m276.9 164.3-17.8-9.7.1-31.8 17.8 9.7z" fill="#231617"/><path d="m277 132.5-17.8-9.7 66.6-9.4 17.8 9.7z" fill="#301f21"/><g clip-path="url(#d)" enable-background="new"><path d="m305.6 96-17.8-9.7c-1-13.1-3.6-21.8-7.7-26.1-1-1.1-2.2-2-3.6-2.7l17.8 9.7c1.3.7 2.5 1.6 3.6 2.7 4.1 4.3 6.7 13 7.7 26.1" fill="#231718"/></g><g clip-path="url(#e)" enable-background="new"><path d="m240.2 239.4-17.8-9.7c-4.5-2.5-8.6-5.7-12.3-9.6-12.3-13.1-18.6-33.9-18.9-62.3l17.8 9.7c.3 28.4 6.6 49.1 18.9 62.3 3.6 3.9 7.7 7.1 12.3 9.6" fill="#231718"/></g><g clip-path="url(#f)" enable-background="new"><path d="m277.7 30.5-17.8-9.7c11.5-1.6 21.5-1.3 29.9.8l17.8 9.7c-8.4-2.1-18.4-2.4-29.9-.8" fill="#2d1d1e"/><path d="m307.6 31.4-17.8-9.7c3.1.8 6 1.9 8.6 3.2l17.8 9.7c-2.7-1.4-5.5-2.4-8.6-3.2" fill="#2c1c1d"/><path d="m316.2 34.5-17.8-9.7c.5.2 1 .5 1.5.8l17.8 9.7c-.5-.3-1-.5-1.5-.8" fill="#2a1b1d"/></g><path d="m209 167.6-17.8-9.7.1-37.6 17.8 9.7z" fill="#231617"/><g clip-path="url(#g)" enable-background="new"><path d="m209.1 130-17.8-9.7c0-19.1 2.6-35.6 7.8-49.6l17.8 9.7c-5.2 14-7.8 30.5-7.8 49.6" fill="#231718"/><path d="m216.8 80.4-17.8-9.7c1.6-4.2 3.4-8.3 5.4-12l17.8 9.7c-2 3.8-3.8 7.8-5.4 12" fill="#251819"/><path d="m222.2 68.4-17.8-9.7c1.4-2.6 2.9-5 4.5-7.4.2-.3.4-.6.6-.9l17.8 9.7c-.2.3-.4.6-.6.9-1.6 2.4-3.1 4.8-4.5 7.4" fill="#26191a"/><path d="m227.3 60.1-17.8-9.7c1.6-2.3 3.3-4.4 5-6.4l17.8 9.7c-1.7 2-3.4 4.1-5 6.4" fill="#271a1b"/><path d="m232.3 53.7-17.8-9.7c1.7-2 3.6-3.8 5.5-5.5l17.8 9.7c-1.9 1.7-3.7 3.5-5.5 5.5" fill="#291a1c"/><path d="m237.8 48.1-17.8-9.7c2.1-1.9 4.3-3.6 6.6-5.2l17.8 9.7c-2.3 1.6-4.5 3.3-6.6 5.2" fill="#2a1b1d"/><path d="m244.5 42.9-17.8-9.7c3-2.1 6.3-4 9.7-5.6l17.8 9.7c-3.5 1.6-6.7 3.5-9.7 5.6" fill="#2c1c1d"/><path d="m254.1 37.3-17.8-9.7c7-3.3 14.9-5.6 23.5-6.8l17.8 9.7c-8.6 1.2-16.4 3.5-23.5 6.8" fill="#2d1d1e"/></g><path d="m277.7 30.5c21-3 36.8.4 47.5 10.1s16.8 26.4 18.4 50l-38 5.3c-1-13.1-3.6-21.8-7.7-26.1s-10.4-5.8-19.1-4.6c-10.5 1.5-18.2 6.7-23 15.7s-7.3 22.6-7.5 40.8l-.1 37.9c0 19 2.6 32.5 7.8 40.4 5.3 7.9 13.9 11 26 9.3 7.7-1.1 14-3.6 18.8-7.7l3.5-3.1.1-38.3-27.4 3.8.1-31.9 66.6-9.4-.2 86.2c-7.5 9.9-16.8 17.8-27.8 23.8s-22.9 9.9-36 11.7c-22.2 3.1-39.5-1.9-51.8-15s-18.6-33.9-18.9-62.3l.1-37.6c.1-28.8 5.9-51.8 17.6-69s28.7-26.8 51-30z" fill="#3b2628"/></g></svg>