<?xml version="1.0" encoding="utf-8"?>
<!-- Generator: Adobe Illustrator 22.1.0, SVG Export Plug-In . SVG Version: 6.00 Build 0)  -->
<svg version="1.1" id="Layer_1" xmlns="http://www.w3.org/2000/svg" xmlns:xlink="http://www.w3.org/1999/xlink" x="0px" y="0px"
	 viewBox="0 0 394.8 286" enable-background="new 0 0 394.8 286" xml:space="preserve">
<g>
	<g>
		<g enable-background="new    ">
			<g enable-background="new    ">
				<defs>
					<path id="SVGID_1_" enable-background="new    " d="M116.9,230.4l-17.8-9.7c2.3,1.2,5,1.6,8.1,1.2c11.3-1.6,17-13.8,17.1-36.5
						l17.8,9.7c0,22.8-5.7,34.9-17.1,36.5C121.9,232,119.1,231.6,116.9,230.4z"/>
				</defs>
				<clipPath id="SVGID_2_">
					<use xlink:href="#SVGID_1_"  overflow="visible"/>
				</clipPath>
				<g clip-path="url(#SVGID_2_)" enable-background="new    ">
					<path fill="#2A1B1D" d="M116.9,230.4l-17.8-9.7c0.1,0.1,0.3,0.1,0.4,0.2l17.8,9.7C117.1,230.5,117,230.5,116.9,230.4"/>
					<path fill="#2C1C1D" d="M117.3,230.6l-17.8-9.7c0.7,0.3,1.4,0.6,2.1,0.8l17.8,9.7C118.6,231.2,117.9,230.9,117.3,230.6"/>
					<path fill="#2D1D1E" d="M119.4,231.4l-17.8-9.7c1.7,0.4,3.6,0.5,5.6,0.2c1.6-0.2,3.1-0.7,4.4-1.3l17.8,9.7
						c-1.4,0.6-2.9,1.1-4.4,1.3C122.9,231.9,121.1,231.8,119.4,231.4"/>
					<path fill="#2C1C1D" d="M129.5,230.3l-17.8-9.7c0.7-0.3,1.4-0.7,2.1-1.2l17.8,9.7C130.9,229.5,130.2,229.9,129.5,230.3"/>
					<path fill="#2A1B1D" d="M131.5,229.1l-17.8-9.7c0.5-0.4,1-0.8,1.5-1.2l17.8,9.7C132.6,228.3,132.1,228.7,131.5,229.1"/>
					<path fill="#291A1C" d="M133.1,227.9l-17.8-9.7c0.5-0.4,0.9-0.9,1.3-1.4l17.8,9.7C134,227,133.5,227.4,133.1,227.9"/>
					<path fill="#271A1B" d="M134.4,226.5l-17.8-9.7c0.5-0.5,0.9-1.1,1.3-1.7l17.8,9.7C135.3,225.4,134.9,226,134.4,226.5"/>
					<path fill="#26191A" d="M135.7,224.8l-17.8-9.7c0.5-0.7,1-1.5,1.4-2.3l17.8,9.7C136.7,223.4,136.2,224.1,135.7,224.8"/>
					<path fill="#251819" d="M137.1,222.5l-17.8-9.7c0.6-1.2,1.2-2.4,1.7-3.8l17.8,9.7C138.3,220.1,137.8,221.4,137.1,222.5"/>
					<path fill="#231718" d="M138.8,218.7L121,209c2.2-5.9,3.2-13.8,3.3-23.7l17.8,9.7C142.1,204.9,141,212.8,138.8,218.7"/>
				</g>
			</g>
			<g enable-background="new    ">
				<defs>
					<path id="SVGID_3_" enable-background="new    " d="M92.7,262.2l-17.8-9.7c-3.3-1.8-6.4-4.1-9.1-6.9
						c-9.8-10-14.7-25.1-14.7-45.4l17.8,9.7c0,20.3,4.9,35.4,14.7,45.4C86.4,258.1,89.4,260.4,92.7,262.2z"/>
				</defs>
				<clipPath id="SVGID_4_">
					<use xlink:href="#SVGID_3_"  overflow="visible"/>
				</clipPath>
				<g clip-path="url(#SVGID_4_)" enable-background="new    ">
					<path fill="#231718" d="M92.7,262.2l-17.8-9.7c-3.3-1.8-6.4-4.1-9.1-6.9c-9.8-10-14.7-25.1-14.7-45.4l17.8,9.7
						c0,20.3,4.9,35.4,14.7,45.4C86.4,258.1,89.4,260.4,92.7,262.2"/>
				</g>
			</g>
			<g>
				<polygon fill="#301F21" points="69,209.9 51.2,200.2 90.4,194.7 108.2,204.4 				"/>
			</g>
			<g>
				<path fill="#3B2628" d="M181.4,46.9l-0.3,144.6c0,20.3-5.3,37.3-15.8,51c-10.5,13.7-24,21.7-40.4,24
					c-17.7,2.5-31.5-1.3-41.3-11.3c-9.8-10-14.7-25.1-14.7-45.4l39.2-5.5c0,19.7,5.6,28.8,16.8,27.2c11.3-1.6,17-13.8,17.1-36.5
					l0.3-142.6L181.4,46.9z"/>
			</g>
			<g>
				<polygon fill="#231617" points="142.1,195 124.3,185.3 124.5,42.7 142.4,52.4 				"/>
			</g>
			<g>
				<polygon fill="#301F21" points="142.4,52.4 124.5,42.7 163.6,37.2 181.4,46.9 				"/>
			</g>
		</g>
		<g enable-background="new    ">
			<g>
				<polygon fill="#2D1D1F" points="300.8,201.8 283,192.2 286.4,189.1 304.2,198.8 				"/>
			</g>
			<g>
				<polygon fill="#231617" points="304.2,198.8 286.4,189.1 286.5,150.8 304.3,160.5 				"/>
			</g>
			<g enable-background="new    ">
				<defs>
					<path id="SVGID_5_" enable-background="new    " d="M263.5,207.1l-17.8-9.7c4.9,2.6,11,3.4,18.5,2.4c7.7-1.1,14-3.6,18.8-7.7
						l17.8,9.7c-4.8,4-11,6.6-18.8,7.7C274.5,210.6,268.4,209.8,263.5,207.1z"/>
				</defs>
				<clipPath id="SVGID_6_">
					<use xlink:href="#SVGID_5_"  overflow="visible"/>
				</clipPath>
				<g clip-path="url(#SVGID_6_)" enable-background="new    ">
					<path fill="#2A1B1D" d="M263.5,207.1l-17.8-9.7c0.2,0.1,0.5,0.3,0.8,0.4l17.8,9.7C264,207.4,263.8,207.3,263.5,207.1"/>
					<path fill="#2C1C1D" d="M264.3,207.5l-17.8-9.7c1.3,0.7,2.8,1.2,4.3,1.6l17.8,9.7C267,208.7,265.6,208.2,264.3,207.5"/>
					<path fill="#2D1D1E" d="M268.5,209.1l-17.8-9.7c3.9,1,8.4,1.1,13.5,0.4c4.6-0.6,8.6-1.8,12.2-3.5l17.8,9.7
						c-3.5,1.7-7.6,2.8-12.2,3.5C276.9,210.2,272.4,210.1,268.5,209.1"/>
					<path fill="#2C1C1D" d="M294.2,206l-17.8-9.7c1.6-0.7,3.1-1.6,4.5-2.6l17.8,9.7C297.2,204.4,295.7,205.3,294.2,206"/>
					<path fill="#2A1B1D" d="M298.6,203.5l-17.8-9.7c0.7-0.5,1.5-1.1,2.1-1.6l17.8,9.7C300.1,202.4,299.4,203,298.6,203.5"/>
				</g>
			</g>
			<g>
				<polygon fill="#231617" points="276.9,164.3 259.1,154.6 259.2,122.8 277,132.5 				"/>
			</g>
			<g>
				<polygon fill="#301F21" points="277,132.5 259.2,122.8 325.8,113.4 343.6,123.1 				"/>
			</g>
			<g enable-background="new    ">
				<defs>
					<path id="SVGID_7_" enable-background="new    " d="M276.6,57.5l17.8,9.7c1.3,0.7,2.5,1.6,3.6,2.7c4.1,4.3,6.6,13,7.7,26.1
						l-17.8-9.7c-1-13.1-3.6-21.8-7.7-26.1C279.1,59.1,277.9,58.2,276.6,57.5z"/>
				</defs>
				<clipPath id="SVGID_8_">
					<use xlink:href="#SVGID_7_"  overflow="visible"/>
				</clipPath>
				<g clip-path="url(#SVGID_8_)" enable-background="new    ">
					<path fill="#231718" d="M305.6,96l-17.8-9.7c-1-13.1-3.6-21.8-7.7-26.1c-1-1.1-2.2-2-3.6-2.7l17.8,9.7c1.3,0.7,2.5,1.6,3.6,2.7
						C302,74.2,304.6,82.9,305.6,96"/>
				</g>
			</g>
			<g enable-background="new    ">
				<defs>
					<path id="SVGID_9_" enable-background="new    " d="M240.2,239.4l-17.8-9.7c-4.5-2.5-8.6-5.7-12.3-9.6
						c-12.3-13.1-18.6-33.9-18.9-62.3l17.8,9.7c0.3,28.4,6.6,49.1,18.9,62.3C231.5,233.7,235.6,236.9,240.2,239.4z"/>
				</defs>
				<clipPath id="SVGID_10_">
					<use xlink:href="#SVGID_9_"  overflow="visible"/>
				</clipPath>
				<g clip-path="url(#SVGID_10_)" enable-background="new    ">
					<path fill="#231718" d="M240.2,239.4l-17.8-9.7c-4.5-2.5-8.6-5.7-12.3-9.6c-12.3-13.1-18.6-33.9-18.9-62.3l17.8,9.7
						c0.3,28.4,6.6,49.1,18.9,62.3C231.5,233.7,235.6,236.9,240.2,239.4"/>
				</g>
			</g>
			<g enable-background="new    ">
				<defs>
					<path id="SVGID_11_" enable-background="new    " d="M299.9,25.6l17.8,9.7c-10.1-5.5-23.4-7.1-40-4.8l-17.8-9.7
						C276.4,18.5,289.7,20.1,299.9,25.6z"/>
				</defs>
				<clipPath id="SVGID_12_">
					<use xlink:href="#SVGID_11_"  overflow="visible"/>
				</clipPath>
				<g clip-path="url(#SVGID_12_)" enable-background="new    ">
					<path fill="#2D1D1E" d="M277.7,30.5l-17.8-9.7c11.5-1.6,21.5-1.3,29.9,0.8l17.8,9.7C299.2,29.2,289.2,28.9,277.7,30.5"/>
					<path fill="#2C1C1D" d="M307.6,31.4l-17.8-9.7c3.1,0.8,6,1.9,8.6,3.2l17.8,9.7C313.5,33.2,310.7,32.2,307.6,31.4"/>
					<path fill="#2A1B1D" d="M316.2,34.5l-17.8-9.7c0.5,0.2,1,0.5,1.5,0.8l17.8,9.7C317.2,35,316.7,34.8,316.2,34.5"/>
				</g>
			</g>
			<g>
				<polygon fill="#231617" points="209,167.6 191.2,157.9 191.3,120.3 209.1,130 				"/>
			</g>
			<g enable-background="new    ">
				<defs>
					<path id="SVGID_13_" enable-background="new    " d="M209.1,130l-17.8-9.7c0.1-28.8,5.9-51.8,17.6-69s28.7-27.3,51-30.5
						l17.8,9.7c-22.3,3.1-39.3,13.3-51,30.5S209.1,101.2,209.1,130z"/>
				</defs>
				<clipPath id="SVGID_14_">
					<use xlink:href="#SVGID_13_"  overflow="visible"/>
				</clipPath>
				<g clip-path="url(#SVGID_14_)" enable-background="new    ">
					<path fill="#231718" d="M209.1,130l-17.8-9.7c0-19.1,2.6-35.6,7.8-49.6l17.8,9.7C211.7,94.4,209.1,110.9,209.1,130"/>
					<path fill="#251819" d="M216.8,80.4L199,70.7c1.6-4.2,3.4-8.3,5.4-12l17.8,9.7C220.2,72.2,218.4,76.2,216.8,80.4"/>
					<path fill="#26191A" d="M222.2,68.4l-17.8-9.7c1.4-2.6,2.9-5,4.5-7.4c0.2-0.3,0.4-0.6,0.6-0.9l17.8,9.7
						c-0.2,0.3-0.4,0.6-0.6,0.9C225.1,63.4,223.6,65.8,222.2,68.4"/>
					<path fill="#271A1B" d="M227.3,60.1l-17.8-9.7c1.6-2.3,3.3-4.4,5-6.4l17.8,9.7C230.6,55.7,228.9,57.8,227.3,60.1"/>
					<path fill="#291A1C" d="M232.3,53.7L214.5,44c1.7-2,3.6-3.8,5.5-5.5l17.8,9.7C235.9,49.9,234.1,51.7,232.3,53.7"/>
					<path fill="#2A1B1D" d="M237.8,48.1L220,38.4c2.1-1.9,4.3-3.6,6.6-5.2l17.8,9.7C242.1,44.5,239.9,46.2,237.8,48.1"/>
					<path fill="#2C1C1D" d="M244.5,42.9l-17.8-9.7c3-2.1,6.3-4,9.7-5.6l17.8,9.7C250.7,38.9,247.5,40.8,244.5,42.9"/>
					<path fill="#2D1D1E" d="M254.1,37.3l-17.8-9.7c7-3.3,14.9-5.6,23.5-6.8l17.8,9.7C269,31.7,261.2,34,254.1,37.3"/>
				</g>
			</g>
			<g>
				<path fill="#3B2628" d="M277.7,30.5c21-3,36.8,0.4,47.5,10.1c10.7,9.7,16.8,26.4,18.4,50l-38,5.3c-1-13.1-3.6-21.8-7.7-26.1
					c-4.1-4.3-10.4-5.8-19.1-4.6c-10.5,1.5-18.2,6.7-23,15.7c-4.8,9-7.3,22.6-7.5,40.8l-0.1,37.9c0,19,2.6,32.5,7.8,40.4
					c5.3,7.9,13.9,11,26,9.3c7.7-1.1,14-3.6,18.8-7.7l3.5-3.1l0.1-38.3l-27.4,3.8l0.1-31.9l66.6-9.4l-0.2,86.2
					c-7.5,9.9-16.8,17.8-27.8,23.8c-11,6-22.9,9.9-36,11.7c-22.2,3.1-39.5-1.9-51.8-15c-12.3-13.1-18.6-33.9-18.9-62.3l0.1-37.6
					c0.1-28.8,5.9-51.8,17.6-69S255.4,33.7,277.7,30.5z"/>
			</g>
		</g>
	</g>
</g>
</svg>
